<svg xmlns="http://www.w3.org/2000/svg" width="50.9" height="50.9" viewBox="0 0 50.9 50.9"><defs><style>.a{fill:none;}</style></defs><path class="a" d="M0,0H50.9V50.9H0Z"/><path d="M32.812,17.725a6.362,6.362,0,1,0-6.362-6.362A6.336,6.336,0,0,0,32.812,17.725Zm-16.967,0a6.362,6.362,0,1,0-6.362-6.362A6.336,6.336,0,0,0,15.846,17.725Zm0,4.242C10.9,21.967,1,24.448,1,29.389v5.3H30.692v-5.3C30.692,24.448,20.787,21.967,15.846,21.967Zm16.967,0c-.615,0-1.315.042-2.057.106,2.46,1.781,4.178,4.178,4.178,7.317v5.3H47.658v-5.3C47.658,24.448,37.754,21.967,32.812,21.967Z" transform="translate(1.121 5.604)"/></svg>