<svg xmlns="http://www.w3.org/2000/svg" width="48" height="48" viewBox="0 0 48 48"><defs><style>.a{fill:none;}</style></defs><path class="a" d="M0,0H48V48H0Z"/><path d="M35.618,23.48a14.149,14.149,0,0,0,.12-1.88,11.553,11.553,0,0,0-.14-1.88l4.06-3.16a.981.981,0,0,0,.24-1.22L36.058,8.7a.977.977,0,0,0-1.18-.44L30.1,10.18a14.129,14.129,0,0,0-3.24-1.88l-.72-5.08a.968.968,0,0,0-.96-.82H17.5a.947.947,0,0,0-.94.82l-.72,5.08a14.44,14.44,0,0,0-3.24,1.88L7.818,8.26a.955.955,0,0,0-1.18.44l-3.82,6.64a.91.91,0,0,0,.24,1.22l4.06,3.16a11.127,11.127,0,0,0-.04,3.76l-4.06,3.16a.981.981,0,0,0-.24,1.22l3.84,6.64a.977.977,0,0,0,1.18.44l4.78-1.92a14.129,14.129,0,0,0,3.24,1.88l.72,5.08a.983.983,0,0,0,.96.82h7.68a.933.933,0,0,0,.94-.82l.72-5.08a13.718,13.718,0,0,0,3.24-1.88l4.78,1.92a.955.955,0,0,0,1.18-.44l3.84-6.64a.926.926,0,0,0-.24-1.22ZM21.338,28.8a7.2,7.2,0,1,1,7.2-7.2A7.221,7.221,0,0,1,21.338,28.8Z" transform="translate(2.662 2.4)"/></svg>